# xmcd CD database file
#
# Track frame offsets:
#	150
#	23277
#	34192
#	48650
#	62645
#	90087
#	102605
#	113647
#	122297
#	137710
#	142715
#
# Disc length: 2099 seconds
#
# Revision: 4
# Processed by: cddbd v1.5.1PL0 Copyright (c) Steve Scherf et al.
# Submitted via: CDex 1.51
#
DISCID=8008310b
DTITLE=Vince Guaraldi Trio - A Charlie Brown Christmas
DYEAR=1900
DGENRE=Jazz
TTITLE0=O Tannenbaum
TTITLE1=What Child is This
TTITLE2=My Little Drum
TTITLE3=Linus and Lucy
TTITLE4=Christmas Time is Here (Instr.)
TTITLE5=Christmas Time is Here (vocal)
TTITLE6=Skating
TTITLE7=Hark, The Herald Angels Sing
TTITLE8=Christmas is Coming
TTITLE9=For Elise
TTITLE10=Christmas Song
EXTD=
EXTT0=
EXTT1=
EXTT2=
EXTT3=
EXTT4=
EXTT5=
EXTT6=
EXTT7=
EXTT8=
EXTT9=
EXTT10=
PLAYORDER=
